<svg width="24" height="24" viewBox="0 0 24 24" fill="none" xmlns="http://www.w3.org/2000/svg">
<path d="M20.03 17.4769C19.5579 17.9491 19.8968 18.7568 20.5601 18.7568C21.2228 18.7568 21.5629 17.9496 21.0902 17.4769C20.7973 17.1839 20.323 17.1838 20.03 17.4769ZM22.398 16.1692C22.473 16.2442 22.5151 16.3459 22.5151 16.452C22.5151 16.558 22.473 16.6597 22.398 16.7347C22.323 16.8097 22.2213 16.8519 22.1152 16.8519C22.0092 16.8519 21.9075 16.8097 21.8325 16.7347C21.1293 16.0315 19.991 16.0315 19.2878 16.7347C19.2128 16.8097 19.1111 16.8519 19.0051 16.8519C18.899 16.8519 18.7973 16.8097 18.7223 16.7347C18.6473 16.6597 18.6052 16.558 18.6052 16.452C18.6052 16.3459 18.6473 16.2442 18.7223 16.1692C19.738 15.1535 21.3821 15.1533 22.398 16.1692ZM23.5996 15.3674C23.5471 15.3675 23.4951 15.3572 23.4466 15.3371C23.398 15.317 23.354 15.2875 23.3169 15.2503C21.7933 13.7266 19.3271 13.7265 17.8034 15.2503C17.7662 15.2874 17.7222 15.3169 17.6736 15.337C17.6251 15.3571 17.5731 15.3674 17.5206 15.3674C17.4681 15.3674 17.4161 15.3571 17.3676 15.337C17.3191 15.3169 17.275 15.2874 17.2379 15.2503C17.2007 15.2132 17.1713 15.1691 17.1512 15.1206C17.1311 15.072 17.1207 15.02 17.1207 14.9675C17.1207 14.915 17.1311 14.863 17.1512 14.8145C17.1713 14.766 17.2007 14.7219 17.2379 14.6848C19.0741 12.8486 22.046 12.8484 23.8824 14.6848C24.1346 14.937 23.9533 15.3673 23.5996 15.3674ZM20.343 20.3722C20.343 21.6951 19.2668 22.7714 17.9438 22.7714H4.99828C3.67533 22.7714 2.5991 21.6951 2.5991 20.3722V8.2518L0.617482 9.53745C0.528518 9.59517 0.420272 9.61518 0.316554 9.59309C0.212837 9.57099 0.122143 9.5086 0.0644219 9.41964C0.00670373 9.33069 -0.0133151 9.22244 0.00876871 9.11873C0.0308525 9.01501 0.0932302 8.92431 0.182181 8.86658L9.50078 2.82061C10.6755 2.05847 12.1934 2.05847 13.368 2.82061L15.6946 4.33009V2.02848C15.5885 2.02848 15.4868 1.98636 15.4119 1.91137C15.3369 1.83638 15.2947 1.73467 15.2947 1.62862C15.2947 1.52257 15.3369 1.42087 15.4119 1.34588C15.4868 1.27089 15.5885 1.22876 15.6946 1.22876H19.9431C20.0492 1.22876 20.1509 1.27089 20.2259 1.34588C20.3009 1.42087 20.343 1.52257 20.343 1.62862C20.343 1.73467 20.3009 1.83638 20.2259 1.91137C20.1509 1.98636 20.0492 2.02848 19.9431 2.02848H19.8932V4.72756C19.8932 4.83361 19.851 4.93531 19.776 5.0103C19.701 5.08529 19.5993 5.12742 19.4933 5.12742C19.3872 5.12742 19.2855 5.08529 19.2105 5.0103C19.1356 4.93531 19.0934 4.83361 19.0934 4.72756V2.02848H16.4943V4.84897L22.6866 8.86658C23.0206 9.08326 22.8646 9.60193 22.4686 9.60193C22.2933 9.60193 22.9256 9.9749 12.9328 3.49148C12.0226 2.90098 10.8464 2.90093 9.93613 3.49148L3.39883 7.73292V20.3722C3.39883 21.2541 4.11633 21.9716 4.99828 21.9716H14.495V15.3476C14.495 14.866 14.1032 14.4742 13.6216 14.4742H9.27046C8.78887 14.4742 8.39706 14.866 8.39706 15.3476V20.3222C8.39706 20.4282 8.35493 20.53 8.27994 20.6049C8.20495 20.6799 8.10325 20.7221 7.9972 20.7221C7.89115 20.7221 7.78944 20.6799 7.71445 20.6049C7.63946 20.53 7.59733 20.4282 7.59733 20.3222V15.3476C7.59733 14.425 8.34793 13.6745 9.27046 13.6745H13.6216C14.5441 13.6745 15.2947 14.425 15.2947 15.3476V21.9716H17.9438C18.8258 21.9716 19.5433 21.2541 19.5433 20.3722C19.5433 20.2661 19.5854 20.1644 19.6604 20.0894C19.7354 20.0144 19.8371 19.9723 19.9431 19.9723C20.0492 19.9723 20.1509 20.0144 20.2259 20.0894C20.3009 20.1644 20.343 20.2661 20.343 20.3722ZM19.9431 9.67586C20.0492 9.67586 20.1509 9.71798 20.2259 9.79297C20.3009 9.86796 20.343 9.96967 20.343 10.0757V11.7002C20.343 11.8062 20.3009 11.9079 20.2259 11.9829C20.1509 12.0579 20.0492 12.1 19.9431 12.1C19.8371 12.1 19.7354 12.0579 19.6604 11.9829C19.5854 11.9079 19.5433 11.8062 19.5433 11.7002V10.0757C19.5433 9.96967 19.5854 9.86796 19.6604 9.79297C19.7354 9.71798 19.8371 9.67586 19.9431 9.67586Z" fill="white"/>
</svg>
