<svg width="24" height="24" viewBox="0 0 24 24" fill="none" xmlns="http://www.w3.org/2000/svg">
<path d="M16.2306 12.4388H13.604C13.5045 12.4388 13.4092 12.4783 13.3388 12.5486C13.2685 12.619 13.229 12.7143 13.229 12.8138V23.25C13.229 23.3495 13.2685 23.4448 13.3388 23.5152C13.4092 23.5855 13.5045 23.625 13.604 23.625H16.2306C16.3301 23.625 16.4255 23.5855 16.4958 23.5152C16.5661 23.4448 16.6056 23.3495 16.6056 23.25V12.8138C16.6056 12.7143 16.5661 12.619 16.4958 12.5486C16.4255 12.4783 16.3301 12.4388 16.2306 12.4388ZM15.8556 22.875H13.979V13.1888H15.8556V22.875ZM11.3534 15.1957H8.72675C8.6273 15.1957 8.53191 15.2352 8.46159 15.3055C8.39126 15.3759 8.35175 15.4712 8.35175 15.5707V23.25C8.35175 23.3495 8.39126 23.4448 8.46159 23.5152C8.53191 23.5855 8.6273 23.625 8.72675 23.625H11.3534C11.4528 23.625 11.5482 23.5855 11.6186 23.5152C11.6889 23.4448 11.7284 23.3495 11.7284 23.25V15.5707C11.7284 15.3636 11.5604 15.1957 11.3534 15.1957ZM10.9784 22.875H9.10175V15.9457H10.9784V22.875ZM21.1078 9.95878H18.4812C18.3817 9.95878 18.2864 9.99829 18.216 10.0686C18.1457 10.1389 18.1062 10.2343 18.1062 10.3338V23.25C18.1062 23.3494 18.1457 23.4448 18.216 23.5151C18.2864 23.5854 18.3817 23.625 18.4812 23.625H21.1078C21.2073 23.625 21.3027 23.5854 21.373 23.5151C21.4433 23.4448 21.4828 23.3494 21.4828 23.25V10.3338C21.4828 10.2343 21.4433 10.1389 21.373 10.0686C21.3027 9.99829 21.2073 9.95878 21.1078 9.95878ZM20.7328 22.875H18.8562V10.7088H20.7328V22.875ZM6.4761 17.8358H3.84946C3.75 17.8358 3.65462 17.8754 3.58429 17.9457C3.51396 18.016 3.47446 18.1114 3.47446 18.2108V23.25C3.47446 23.3494 3.51396 23.4448 3.58429 23.5151C3.65462 23.5854 3.75 23.625 3.84946 23.625H6.4761C6.57555 23.625 6.67093 23.5854 6.74126 23.5151C6.81159 23.4448 6.8511 23.3494 6.8511 23.25V18.2108C6.8511 18.1114 6.81159 18.016 6.74126 17.9457C6.67093 17.8754 6.57555 17.8358 6.4761 17.8358ZM6.1011 22.875H4.22446V18.5858H6.1011V22.875ZM20.5864 6.32456C18.1398 8.49797 15.4389 10.433 12.5454 12.0821C9.8113 13.6404 6.83399 14.9846 3.69627 16.0773C3.65663 16.0912 3.61493 16.0983 3.57294 16.0983C3.48428 16.0983 3.39846 16.067 3.33072 16.0098C3.26298 15.9526 3.2177 15.8732 3.20292 15.7858C3.18813 15.6984 3.2048 15.6086 3.24996 15.5323C3.29513 15.456 3.36586 15.3981 3.44961 15.369C9.80638 13.1553 15.3943 9.92972 20.0735 5.77678L19.0275 5.83355C18.9784 5.83624 18.9291 5.82922 18.8827 5.81287C18.8362 5.79653 18.7934 5.77119 18.7567 5.7383C18.7201 5.70541 18.6903 5.66562 18.669 5.62119C18.6477 5.57677 18.6354 5.52859 18.6328 5.47941C18.6301 5.43023 18.6371 5.38101 18.6535 5.33456C18.6698 5.2881 18.6952 5.24533 18.7281 5.20867C18.7609 5.17201 18.8007 5.14219 18.8451 5.1209C18.8895 5.09962 18.9377 5.08729 18.9869 5.08463L21.0875 4.97058C21.143 4.96757 21.1984 4.97691 21.2498 4.99793C21.3012 5.01895 21.3473 5.05112 21.3847 5.09211C21.4222 5.13311 21.4501 5.18191 21.4664 5.23499C21.4827 5.28808 21.487 5.34412 21.479 5.39906L21.1758 7.48083C21.1615 7.57924 21.1087 7.66792 21.0289 7.72738C20.9492 7.78684 20.8492 7.8122 20.7508 7.79789C20.6523 7.78356 20.5636 7.73072 20.5042 7.651C20.4447 7.57128 20.4194 7.4712 20.4337 7.37278L20.5864 6.32456ZM7.47524 11.3667C9.10677 11.3667 10.6342 10.5633 11.561 9.21773C11.589 9.17716 11.6087 9.13147 11.619 9.08328C11.6293 9.03508 11.63 8.98533 11.621 8.93687C11.6121 8.8884 11.5936 8.84218 11.5668 8.80085C11.54 8.75951 11.5052 8.72387 11.4646 8.69597L7.85042 6.21155L7.85019 1.82508C7.85019 1.72562 7.81068 1.63024 7.74035 1.55991C7.67003 1.48959 7.57465 1.45008 7.47519 1.45008C4.74116 1.45008 2.51685 3.67439 2.51685 6.40842C2.51689 9.14241 4.7412 11.3667 7.47524 11.3667ZM7.10028 2.21662L7.10047 6.40884C7.10047 6.46967 7.11527 6.52959 7.1436 6.58342C7.17192 6.63725 7.21291 6.68338 7.26303 6.71784L10.7167 9.09197C9.92033 10.0529 8.73425 10.6167 7.47528 10.6167C5.15478 10.6167 3.26694 8.72888 3.26694 6.40842C3.26689 4.21425 4.95472 2.40689 7.10028 2.21662ZM8.87558 5.64281L12.6526 8.23917C12.7149 8.28219 12.7889 8.30521 12.8647 8.30517C12.9255 8.30526 12.9855 8.29053 13.0393 8.26225C13.0932 8.23398 13.1394 8.19301 13.1738 8.14289C13.7445 7.31447 14.0461 6.34294 14.0461 5.33339C14.0461 2.59931 11.8219 0.375 9.08778 0.375C8.98833 0.375025 8.89297 0.414542 8.82265 0.484862C8.75233 0.555183 8.71281 0.650551 8.71278 0.75L8.71302 5.33377C8.71301 5.3946 8.72781 5.45452 8.75613 5.50837C8.78445 5.56221 8.82545 5.60835 8.87558 5.64281ZM13.2961 5.33334C13.2961 6.06413 13.11 6.77128 12.755 7.39945L9.46306 5.13647L9.46283 1.14155C11.6083 1.33186 13.2961 3.13917 13.2961 5.33334Z" fill="black"/>
</svg>
