<svg width="24" height="24" viewBox="0 0 24 24" fill="none" xmlns="http://www.w3.org/2000/svg">
<path fill-rule="evenodd" clip-rule="evenodd" d="M13.848 16.2644C16.52 17.0078 18.5364 19.3235 18.8386 22.1518C18.8442 22.2043 18.8387 22.2575 18.8224 22.3077C18.8062 22.358 18.7795 22.4042 18.7442 22.4435C18.7089 22.4828 18.6657 22.5142 18.6175 22.5357C18.5693 22.5572 18.517 22.5683 18.4642 22.5683H5.53565C5.48282 22.5683 5.43058 22.5572 5.38233 22.5356C5.33408 22.5141 5.2909 22.4827 5.25559 22.4434C5.22028 22.4041 5.19364 22.3578 5.1774 22.3075C5.16115 22.2573 5.15567 22.2041 5.1613 22.1516C5.46506 19.3233 7.48177 17.0076 10.153 16.2643C9.06822 15.627 8.33758 14.447 8.33758 13.1022C8.33758 11.0846 9.98229 9.43814 11.9999 9.43814C14.0195 9.43814 15.664 11.0847 15.664 13.1022C15.664 14.4471 14.9333 15.6271 13.848 16.2644ZM11.9999 16.7664C8.98497 16.7664 6.47871 18.9457 5.9692 21.8154H18.0309C17.5229 18.9457 15.0165 16.7664 11.9999 16.7664ZM11.9999 16.0134C13.6045 16.0134 14.9111 14.7052 14.9111 13.1022C14.9111 11.4993 13.6045 10.1911 11.9999 10.1911C10.397 10.1911 9.09052 11.4993 9.09052 13.1022C9.09052 14.7052 10.397 16.0134 11.9999 16.0134ZM5.44982 13.8923C5.44982 14.1002 5.28111 14.2688 5.07335 14.2688C4.86558 14.2688 4.69688 14.1002 4.69688 13.8923C4.69688 9.86171 7.96925 6.58929 11.9999 6.58929C16.0306 6.58929 19.303 9.86171 19.303 13.8923C19.303 14.1002 19.1343 14.2688 18.9265 14.2688C18.7188 14.2688 18.5501 14.1002 18.5501 13.8923C18.5501 10.2772 15.615 7.34223 11.9999 7.34223C8.38483 7.34223 5.44982 10.2772 5.44982 13.8923ZM11.6235 3.77192V1.80811C11.6235 1.60035 11.7922 1.43164 11.9999 1.43164C12.2077 1.43164 12.3764 1.60035 12.3764 1.80811V3.77192L12.4822 3.67912C12.5573 3.61332 12.6554 3.58001 12.755 3.5865C12.8546 3.593 12.9476 3.63877 13.0134 3.71376C13.0793 3.78882 13.1126 3.88695 13.1061 3.98658C13.0996 4.0862 13.0538 4.17917 12.9788 4.24505L12.2483 4.88614C12.1796 4.94641 12.0913 4.97965 11.9999 4.97965C11.9086 4.97965 11.8203 4.94641 11.7516 4.88614L11.0211 4.24505C10.946 4.17917 10.9003 4.0862 10.8938 3.98658C10.8873 3.88695 10.9206 3.78882 10.9864 3.71376C11.0523 3.63877 11.1453 3.593 11.2449 3.5865C11.3445 3.58001 11.4426 3.61332 11.5177 3.67912L11.6235 3.77192ZM5.66864 6.23851L5.67777 6.09809C5.69132 5.89075 5.87062 5.73338 6.07796 5.74693C6.17758 5.75347 6.27052 5.7993 6.33637 5.87434C6.40222 5.94938 6.43557 6.0475 6.42911 6.14712L6.36586 7.11701C6.35992 7.20819 6.32102 7.29409 6.25641 7.3587C6.1918 7.42331 6.10589 7.46222 6.01471 7.46816L5.04478 7.53145C4.94515 7.53789 4.84705 7.50452 4.77201 7.43867C4.69697 7.37282 4.65114 7.27987 4.64459 7.18025C4.63815 7.08063 4.67153 6.98253 4.73738 6.9075C4.80323 6.83247 4.89618 6.78665 4.99579 6.78011L5.13622 6.77093L3.7476 5.38232C3.67703 5.3117 3.63739 5.21595 3.63739 5.11611C3.63739 5.01627 3.67703 4.92052 3.7476 4.8499C3.81822 4.77934 3.91397 4.73971 4.01379 4.73971C4.11362 4.73971 4.20936 4.77934 4.27998 4.8499L5.66864 6.23851ZM2.66963 12.7258L2.57683 12.62C2.43975 12.4638 2.45528 12.2258 2.61146 12.0887C2.76765 11.9517 3.00568 11.9672 3.14276 12.1234L3.78384 12.8539C3.84411 12.9226 3.87734 13.0109 3.87734 13.1023C3.87734 13.1936 3.84411 13.2819 3.78384 13.3506L3.14276 14.0811C3.00568 14.2373 2.76765 14.2528 2.61146 14.1158C2.45528 13.9787 2.43975 13.7407 2.57683 13.5845L2.66963 13.4787H0.705816C0.498052 13.4787 0.329346 13.31 0.329346 13.1022C0.329346 12.8945 0.498052 12.7258 0.705816 12.7258H2.66963ZM18.3312 6.23851L19.7199 4.8499C19.7905 4.77934 19.8862 4.73971 19.9861 4.73971C20.0859 4.73971 20.1816 4.77934 20.2523 4.8499C20.3228 4.92052 20.3625 5.01627 20.3625 5.11611C20.3625 5.21595 20.3228 5.3117 20.2523 5.38232L18.8637 6.77093L19.0041 6.78011C19.1037 6.78665 19.1966 6.83247 19.2625 6.9075C19.3283 6.98253 19.3617 7.08063 19.3553 7.18025C19.3487 7.27987 19.3029 7.37282 19.2279 7.43867C19.1528 7.50452 19.0547 7.53789 18.9551 7.53145L17.9852 7.46816C17.894 7.46222 17.8081 7.42331 17.7435 7.3587C17.6789 7.29409 17.6399 7.20819 17.634 7.11701L17.5708 6.14712C17.5643 6.0475 17.5977 5.94938 17.6635 5.87434C17.7293 5.7993 17.8223 5.75347 17.9219 5.74693C18.1293 5.73338 18.3085 5.89075 18.3221 6.09809L18.3312 6.23851ZM21.3302 12.7258H23.2941C23.5018 12.7258 23.6705 12.8945 23.6705 13.1022C23.6705 13.31 23.5018 13.4787 23.2941 13.4787H21.3302L21.423 13.5845C21.5601 13.7407 21.5446 13.9787 21.3884 14.1158C21.2322 14.2528 20.9942 14.2373 20.8571 14.0811L20.216 13.3506C20.1558 13.2819 20.1225 13.1936 20.1225 13.1023C20.1225 13.0109 20.1558 12.9226 20.216 12.8539L20.8571 12.1234C20.9942 11.9672 21.2322 11.9517 21.3884 12.0887C21.5446 12.2258 21.5601 12.4638 21.423 12.62L21.3302 12.7258Z" fill="black"/>
</svg>
