<svg width="26" height="23" viewBox="0 0 26 23" fill="none" xmlns="http://www.w3.org/2000/svg">
<path d="M4.94839 15.9032C5.8 15.0516 6.38065 13.8129 6.88387 12.3419C7.65806 12.3419 8.31613 13 8.31613 13.7742V14.0064L7.92903 16.6387L10.0581 16.5613C11.0645 16.5226 11.8 17.4129 11.6452 18.4194L11.1806 20.8194C11.0258 21.5548 10.4065 22.0968 9.67097 22.0968H7.07742C6.6129 22.0968 6.14839 22.0581 5.72258 21.9419L5.06452 21.7871M21.0129 21.7097L20.3548 21.9032C19.8903 22.0194 19.4645 22.0581 19 22.0581H16.4065C15.671 22.0581 15.0129 21.5161 14.8581 20.7806L14.3935 18.3806C14.2 17.4129 14.9742 16.5226 15.9806 16.5226L18.1097 16.6L17.7226 13.9677V13.7355C17.7226 12.9613 18.3419 12.3032 19.1548 12.3032C19.6194 13.7742 20.2387 15.0129 21.0903 15.8645M3.16774 22.3677H1.61935C1.27097 22.3677 1 22.0968 1 21.7484V16.1742C1 15.8258 1.27097 15.5548 1.61935 15.5548H3.16774C3.51613 15.5548 3.7871 15.8258 3.7871 16.1742V21.7484C3.82581 22.0968 3.51613 22.3677 3.16774 22.3677ZM22.8323 22.3677H24.3806C24.729 22.3677 25 22.0968 25 21.7484V16.1742C25 15.8258 24.729 15.5548 24.3806 15.5548H22.8323C22.4839 15.5548 22.2129 15.8258 22.2129 16.1742V21.7484C22.1742 22.0968 22.4839 22.3677 22.8323 22.3677Z" stroke="black" stroke-miterlimit="10" stroke-linecap="round" stroke-linejoin="round"/>
<path d="M13 12.8838C15.5441 12.8838 17.6065 10.8214 17.6065 8.27735C17.6065 5.73328 15.5441 3.6709 13 3.6709C10.4559 3.6709 8.39355 5.73328 8.39355 8.27735C8.39355 10.8214 10.4559 12.8838 13 12.8838Z" stroke="black" stroke-miterlimit="10" stroke-linecap="round" stroke-linejoin="round"/>
<path d="M13.0001 2.04516V1M19.2323 8.27742H20.2775M5.72266 8.27742H6.76782M17.413 3.86452L18.1485 3.12903M7.85169 3.12903L8.58717 3.86452M12.0323 10.4452C11.8388 10.4452 11.6452 10.3677 11.4904 10.2129L10.5614 9.28387C10.2517 8.97419 10.2517 8.50968 10.5614 8.2C10.871 7.89032 11.3356 7.89032 11.6452 8.2L12.0323 8.5871L14.3162 6.30323C14.6259 5.99355 15.0904 5.99355 15.4001 6.30323C15.7098 6.6129 15.7098 7.07742 15.4001 7.3871L12.5743 10.2129C12.4581 10.3677 12.2259 10.4452 12.0323 10.4452Z" stroke="black" stroke-miterlimit="10" stroke-linecap="round" stroke-linejoin="round"/>
</svg>
